<svg xmlns="http://www.w3.org/2000/svg" id="Logo-RankMyApp" width="255" height="47.607" viewBox="0 0 255 47.607"><path id="Uni&#xE3;o_2" data-name="Uni&#xE3;o 2" d="M8.4,47.607A8.4,8.4,0,0,1,0,39.221V8.385A8.4,8.4,0,0,1,8.4,0H39.291a8.4,8.4,0,0,1,8.4,8.385V39.229a8.4,8.4,0,0,1-8.4,8.378ZM2.549,8.385V39.229a5.85,5.85,0,0,0,5.85,5.84H39.291a5.85,5.85,0,0,0,5.85-5.84V8.385a5.849,5.849,0,0,0-5.85-5.839H8.4A5.849,5.849,0,0,0,2.549,8.385ZM235.882,44.728a2.156,2.156,0,0,1-.7-1.671V20.5a2.273,2.273,0,0,1,.657-1.711,2.435,2.435,0,0,1,1.77-.637,2.508,2.508,0,0,1,1.79.637,2.238,2.238,0,0,1,.676,1.711v1a6.116,6.116,0,0,1,2.528-2.528,7.757,7.757,0,0,1,3.76-.895,8.062,8.062,0,0,1,4.476,1.274,8.443,8.443,0,0,1,3.063,3.6A12.449,12.449,0,0,1,255,28.295a12.048,12.048,0,0,1-1.094,5.292,8.03,8.03,0,0,1-7.54,4.735,7.707,7.707,0,0,1-3.7-.875,6.137,6.137,0,0,1-2.507-2.427v8.117a2.064,2.064,0,0,1-.677,1.631,2.936,2.936,0,0,1-3.6-.04Zm5.491-21.168a7.344,7.344,0,0,0-1.294,4.656,7.274,7.274,0,0,0,1.294,4.616,4.966,4.966,0,0,0,7.341.019,7.038,7.038,0,0,0,1.312-4.557,7.435,7.435,0,0,0-1.312-4.694,4.906,4.906,0,0,0-7.341-.041ZM214.357,44.728a2.156,2.156,0,0,1-.7-1.671V20.5a2.275,2.275,0,0,1,.656-1.711,2.438,2.438,0,0,1,1.77-.637,2.508,2.508,0,0,1,1.79.637,2.238,2.238,0,0,1,.676,1.711v1a6.114,6.114,0,0,1,2.527-2.528,7.757,7.757,0,0,1,3.761-.895,8.062,8.062,0,0,1,4.476,1.274,8.447,8.447,0,0,1,3.063,3.6,12.459,12.459,0,0,1,1.094,5.352,12.057,12.057,0,0,1-1.094,5.292,8.03,8.03,0,0,1-7.54,4.735,7.714,7.714,0,0,1-3.7-.875,6.141,6.141,0,0,1-2.506-2.427v8.117a2.064,2.064,0,0,1-.677,1.631,2.606,2.606,0,0,1-1.791.6A2.579,2.579,0,0,1,214.357,44.728Zm5.491-21.168a7.344,7.344,0,0,0-1.294,4.656,7.274,7.274,0,0,0,1.294,4.616,4.966,4.966,0,0,0,7.341.019,7.035,7.035,0,0,0,1.313-4.557,7.432,7.432,0,0,0-1.313-4.694,4.905,4.905,0,0,0-7.341-.041ZM174.329,44.788a1.809,1.809,0,0,1-.7-1.453,2.571,2.571,0,0,1,.239-.995l2.706-5.689-7.4-15.4a2.016,2.016,0,0,1-.2-.916,1.94,1.94,0,0,1,.776-1.552,2.714,2.714,0,0,1,1.77-.637,2.342,2.342,0,0,1,1.234.338,2.258,2.258,0,0,1,.875,1.055l5.57,12.295,5.532-12.255a2.3,2.3,0,0,1,.855-1.055,2.17,2.17,0,0,1,1.175-.338,2.505,2.505,0,0,1,1.65.617,1.921,1.921,0,0,1,.737,1.532,2.053,2.053,0,0,1-.239.916L178.049,44.011a2.222,2.222,0,0,1-2.109,1.354A2.451,2.451,0,0,1,174.329,44.788Zm-90.5-7.262a6.306,6.306,0,0,1-2.507-2.188,5.53,5.53,0,0,1-.915-3.1A4.92,4.92,0,0,1,81.5,28.852a6.579,6.579,0,0,1,3.561-1.79,32.433,32.433,0,0,1,6.8-.558h.994v-.915a4.073,4.073,0,0,0-.835-2.845,3.556,3.556,0,0,0-2.706-.9,8.593,8.593,0,0,0-2.347.338q-1.194.338-2.825.974a3.978,3.978,0,0,1-1.512.518,1.493,1.493,0,0,1-1.174-.518,1.963,1.963,0,0,1-.457-1.352,2.037,2.037,0,0,1,.338-1.173,3.2,3.2,0,0,1,1.134-.935A12.967,12.967,0,0,1,85.8,18.507a17.2,17.2,0,0,1,3.8-.437q4.059,0,6.028,2.009t1.97,6.108V35.9a2.245,2.245,0,0,1-.637,1.691,2.409,2.409,0,0,1-1.75.616,2.326,2.326,0,0,1-1.691-.636,2.224,2.224,0,0,1-.657-1.671V35.02a5.192,5.192,0,0,1-2.129,2.427,6.389,6.389,0,0,1-3.361.875A7.814,7.814,0,0,1,83.83,37.526Zm4.178-8.157A4.015,4.015,0,0,0,85.9,30.2a2.129,2.129,0,0,0-.636,1.632,2.7,2.7,0,0,0,.895,2.089,3.158,3.158,0,0,0,2.208.816,4.248,4.248,0,0,0,3.243-1.334,4.819,4.819,0,0,0,1.253-3.442V29.13h-.715A27.484,27.484,0,0,0,88.008,29.369ZM76.489,37.983a2.619,2.619,0,0,1-.975-.895l-5.291-8.037a5.163,5.163,0,0,0-1.691-1.79,4.618,4.618,0,0,0-2.327-.518H62.3v8.914a2.593,2.593,0,0,1-.676,1.889,2.433,2.433,0,0,1-1.831.7,2.5,2.5,0,0,1-1.85-.7,2.549,2.549,0,0,1-.7-1.889V12.379a2.38,2.38,0,0,1,.656-1.79,2.491,2.491,0,0,1,1.81-.637h9.947q4.775,0,7.262,2.129a7.649,7.649,0,0,1,2.487,6.147,7.768,7.768,0,0,1-1.851,5.351,8.753,8.753,0,0,1-5.232,2.686,5.028,5.028,0,0,1,2.029,1,8.787,8.787,0,0,1,1.711,1.989l3.621,5.531a2.519,2.519,0,0,1,.477,1.393,1.867,1.867,0,0,1-.736,1.512,2.668,2.668,0,0,1-1.73.6A2.61,2.61,0,0,1,76.489,37.983ZM62.265,22.8h6.684a6.74,6.74,0,0,0,4.258-1.094,4.072,4.072,0,0,0,1.353-3.363,4,4,0,0,0-1.353-3.363,6.934,6.934,0,0,0-4.258-1.054H62.265Zm100.9,14.8a2.456,2.456,0,0,1-.6-1.75V19.462l-6.764,12.812a3.957,3.957,0,0,1-1.034,1.293,2.131,2.131,0,0,1-1.313.418,2.2,2.2,0,0,1-1.313-.4,3.642,3.642,0,0,1-1.034-1.313l-6.8-12.613V35.855a2.43,2.43,0,0,1-.616,1.73,2.161,2.161,0,0,1-1.652.657,2.13,2.13,0,0,1-1.631-.637,2.456,2.456,0,0,1-.6-1.75V12.3a2.59,2.59,0,0,1,.657-1.851,2.316,2.316,0,0,1,1.77-.7,2.679,2.679,0,0,1,2.427,1.711l8.833,16.83,8.793-16.83a2.634,2.634,0,0,1,2.347-1.711,2.384,2.384,0,0,1,1.79.7,2.544,2.544,0,0,1,.677,1.851V35.855a2.364,2.364,0,0,1-.637,1.75,2.261,2.261,0,0,1-1.671.637A2.128,2.128,0,0,1,163.169,37.606Zm-49.775,0a2.283,2.283,0,0,1-.677-1.75v-9.51a5.166,5.166,0,0,0-.854-3.3,3.292,3.292,0,0,0-2.686-1.034,4.541,4.541,0,0,0-3.442,1.353,5.023,5.023,0,0,0-1.293,3.621v8.874a2.289,2.289,0,0,1-.676,1.75,2.567,2.567,0,0,1-1.831.637,2.492,2.492,0,0,1-1.81-.637,2.325,2.325,0,0,1-.656-1.75v-15.4a2.189,2.189,0,0,1,.676-1.671,2.565,2.565,0,0,1,1.831-.637,2.372,2.372,0,0,1,1.691.617,2.113,2.113,0,0,1,.656,1.612v1.074a6.72,6.72,0,0,1,2.667-2.507,8.021,8.021,0,0,1,3.779-.876,6.5,6.5,0,0,1,5.213,1.99q1.71,1.99,1.711,6.008v9.789a2.323,2.323,0,0,1-.657,1.75,2.494,2.494,0,0,1-1.811.637A2.563,2.563,0,0,1,113.394,37.606Zm20.451-.12-9.311-8.435v6.8a2.149,2.149,0,0,1-.716,1.75,2.7,2.7,0,0,1-1.79.6,2.618,2.618,0,0,1-1.77-.6,2.174,2.174,0,0,1-.7-1.75V12.1a2.174,2.174,0,0,1,.7-1.75,2.618,2.618,0,0,1,1.77-.6,2.7,2.7,0,0,1,1.79.6,2.149,2.149,0,0,1,.716,1.75V27.062l8.515-8.157a2.245,2.245,0,0,1,1.631-.717,2.31,2.31,0,0,1,2.268,2.268,2.322,2.322,0,0,1-.755,1.671l-6.247,5.809,6.923,6.208a2.308,2.308,0,0,1,.8,1.711,2.344,2.344,0,0,1-.657,1.631,2.019,2.019,0,0,1-1.531.716A2.336,2.336,0,0,1,133.845,37.486Zm74.364.338a2.252,2.252,0,0,1-.876-1.054l-2.387-5.332H190.94l-2.387,5.332a2.256,2.256,0,0,1-.876,1.054,2.331,2.331,0,0,1-1.234.338,2.535,2.535,0,0,1-1.671-.637,1.957,1.957,0,0,1-.755-1.552,2.446,2.446,0,0,1,.239-1.034l10.981-23.595a2.567,2.567,0,0,1,1.094-1.214,3.168,3.168,0,0,1,3.144,0,2.57,2.57,0,0,1,1.094,1.214L211.591,34.94a2.446,2.446,0,0,1,.239,1.034,1.98,1.98,0,0,1-.735,1.552,2.514,2.514,0,0,1-1.692.637A2.258,2.258,0,0,1,208.209,37.825ZM192.691,27.459h10.5l-5.252-11.818ZM29.787,36.9a3.51,3.51,0,0,1-1.639-2.968V20.6a1.485,1.485,0,0,0-1.484-1.484H14.779a4.769,4.769,0,1,1,0-9.538H24.785c.035,0,.07-.008.106-.008h9.172a3.616,3.616,0,0,1,3.617,3.619.1.1,0,0,1-.014.042c0,.015.007.035.007.05V33.933a3.51,3.51,0,0,1-1.64,2.968,4.855,4.855,0,0,1-6.247,0Zm-15.4-1.159a3.4,3.4,0,1,1,.177,0Q14.48,35.746,14.391,35.742Zm7.136-6.431a3.4,3.4,0,1,1,.178,0Q21.616,29.316,21.527,29.311Z" fill="#fff"></path></svg>